<?xml version="1.0" standalone="no"?>
<!DOCTYPE svg PUBLIC "-//W3C//DTD SVG 20010904//EN"
 "http://www.w3.org/TR/2001/REC-SVG-20010904/DTD/svg10.dtd">
<svg version="1.0" xmlns="http://www.w3.org/2000/svg"
 width="500.000000pt" height="500.000000pt" viewBox="0 0 500.000000 500.000000"
 preserveAspectRatio="xMidYMid meet">
<metadata>
Created by potrace 1.14, written by Peter Selinger 2001-2017
</metadata>
<g transform="translate(0.000000,500.000000) scale(0.100000,-0.100000)"
fill="#000000" stroke="none">
<path d="M1917 3822 c-14 -16 -17 -42 -17 -165 l0 -147 -279 0 c-241 0 -282
-2 -295 -16 -13 -13 -16 -43 -16 -170 l0 -154 -68 0 c-90 0 -102 -12 -102
-103 l0 -67 -53 0 c-86 0 -87 -2 -87 -230 0 -170 2 -196 18 -214 16 -19 16
-20 0 -7 -17 12 -17 -17 -18 -522 0 -475 2 -537 16 -551 13 -14 58 -16 345
-16 209 0 337 4 350 10 16 9 19 22 19 79 l0 69 50 4 50 3 0 -67 c0 -60 3 -69
24 -83 19 -13 29 -14 45 -6 19 11 19 23 20 602 1 644 -3 598 58 665 110 119
261 197 436 223 l57 8 0 -743 c0 -733 0 -743 20 -754 33 -18 60 4 60 48 1 69
1 586 0 767 0 99 -1 292 0 429 l0 249 58 -7 c142 -17 298 -98 410 -213 l62
-65 1 -552 c0 -303 0 -570 -1 -593 -1 -34 3 -44 24 -58 19 -13 29 -14 45 -5
18 9 21 20 21 80 l0 70 50 0 50 0 0 -64 c0 -102 -22 -96 361 -96 208 0 337 4
350 10 18 10 19 30 19 753 0 446 -4 748 -10 757 -6 10 -31 17 -72 20 l-62 5
-2 67 c-2 91 -9 98 -100 98 l-74 0 0 154 c0 127 -3 157 -16 170 -13 14 -53 16
-280 16 l-264 0 0 148 c0 81 -5 154 -10 162 -8 13 -87 15 -593 18 -557 2 -584
2 -600 -16z m1113 -322 l0 -250 -520 0 -520 0 0 250 0 250 313 2 c171 2 405 2
520 0 l207 -3 0 -249z m-1130 -186 c0 -58 5 -114 10 -125 10 -18 28 -19 599
-19 657 0 614 -5 611 72 -1 24 -1 73 -1 111 l1 67 235 0 235 0 0 -125 0 -125
-80 0 c-95 0 -100 -5 -100 -104 l0 -66 -54 0 c-87 0 -86 3 -86 -241 l0 -209
-50 0 -50 0 0 75 c0 73 0 75 -46 131 -153 188 -377 294 -619 294 -257 0 -474
-106 -638 -312 -35 -44 -37 -51 -37 -117 l0 -71 -50 0 -50 0 0 208 c0 114 -4
214 -10 222 -8 14 -27 17 -97 19 l-33 1 0 67 c0 93 -11 103 -112 103 l-78 0 0
125 0 125 250 0 250 0 0 -106z m1870 -275 l0 -39 -135 0 -135 0 0 40 0 39 128
3 c70 2 130 2 135 0 4 -2 7 -21 7 -43z m-2270 1 l0 -40 -135 0 -135 0 0 40 0
40 135 0 135 0 0 -40z m140 -225 l0 -95 -142 0 c-120 0 -145 -3 -162 -17 -20
-17 -20 -17 -7 0 13 16 6 17 -113 17 l-126 0 0 95 0 95 275 0 275 0 0 -95z
m2271 73 c2 -76 1 -159 -2 -163 -5 -4 -149 -6 -391 -6 l-158 1 0 95 0 95 275
0 275 0 1 -22z m-2271 -348 l0 -90 -252 -1 c-139 0 -267 -1 -285 -2 -20 -1
-29 1 -23 8 6 5 10 46 10 92 l0 83 275 0 275 0 0 -90z m2271 63 c1 -16 1 -48
1 -73 0 -25 5 -51 11 -59 9 -12 9 -13 0 -7 -7 4 -13 2 -13 -3 0 -8 -88 -11
-275 -11 l-275 0 0 90 0 90 275 0 275 0 1 -27z m-2079 -455 c2 -172 2 -343 0
-380 l-3 -68 -49 0 -50 0 0 380 0 380 50 0 49 0 3 -312z m1439 35 c1 -388 0
-475 -4 -479 -1 -2 -24 -5 -49 -7 l-47 -5 -3 47 c-2 25 -2 198 0 384 l3 337
49 0 50 0 1 -277z m-1631 72 l0 -104 -107 -3 c-60 -2 -183 -2 -275 0 l-168 3
0 104 0 105 275 0 275 0 0 -105z m2271 88 c1 -27 1 -156 0 -175 -1 -17 -21
-18 -276 -18 l-275 0 0 105 0 105 275 0 c255 0 275 -1 276 -17z m-2450 -230
c13 -16 12 -17 -3 -4 -17 13 -22 21 -14 21 2 0 10 -8 17 -17z m179 -158 l0
-105 -275 0 -275 0 0 105 0 105 275 0 275 0 0 -105z m2271 75 c0 -16 0 -50 0
-75 0 -25 0 -58 0 -75 l-1 -30 -274 0 -274 0 -4 73 c-2 39 -2 87 0 105 l3 32
275 0 274 0 1 -30z m-2271 -375 l0 -105 -275 0 -275 0 0 105 0 105 275 0 275
0 0 -105z m2273 18 c-1 -49 -2 -96 -2 -105 -1 -17 -21 -18 -276 -18 l-275 0 0
105 0 105 278 0 277 0 -2 -87z"/>
<path d="M2421 3707 c-65 -25 -71 -42 -71 -206 0 -137 2 -148 23 -173 32 -39
100 -55 149 -35 64 27 72 50 72 207 -1 145 -9 176 -52 199 -32 17 -86 20 -121
8z m69 -197 c0 -134 -6 -166 -26 -149 -18 15 -20 259 -2 277 21 21 28 -8 28
-128z"/>
<path d="M2712 3709 c-13 -5 -21 -13 -17 -19 3 -6 0 -7 -9 -4 -10 4 -22 -6
-36 -28 -17 -28 -20 -50 -20 -152 0 -149 10 -179 67 -207 52 -25 104 -20 149
16 l29 23 3 137 c3 177 -2 194 -58 223 -47 24 -71 26 -108 11z m41 -62 c4 3
10 -3 13 -13 4 -10 16 -30 28 -44 l21 -25 -22 19 -22 19 -3 -124 c-4 -171 -22
-158 -26 18 -2 88 -7 142 -15 152 -10 14 -10 14 4 4 9 -7 19 -10 22 -6z m98
-114 c13 -16 12 -17 -3 -4 -17 13 -22 21 -14 21 2 0 10 -8 17 -17z"/>
<path d="M2130 3665 c0 -45 0 -45 35 -45 19 0 35 -5 35 -11 0 -10 -14 -58 -56
-187 -13 -40 -24 -86 -24 -102 l0 -30 100 0 100 0 0 45 c0 45 0 45 -35 45 -19
0 -35 5 -35 11 0 11 21 81 51 170 10 30 19 76 19 101 l0 46 -95 1 -95 1 0 -45z"/>
<path d="M2286 2704 c-14 -14 -16 -72 -16 -495 0 -312 4 -487 10 -500 6 -11
21 -19 35 -19 14 0 29 8 35 19 14 27 14 965 0 992 -13 23 -43 25 -64 3z"/>
<path d="M2692 2707 c-7 -8 -11 -178 -11 -509 -1 -441 1 -497 15 -502 29 -11
53 -6 64 13 15 28 13 953 -2 986 -12 27 -48 34 -66 12z"/>
<path d="M2085 2511 c-4 -8 -6 -127 -6 -426 0 -11 0 -60 0 -110 -1 -49 -1 -97
0 -105 0 -8 1 -50 0 -93 0 -52 4 -77 11 -72 5 3 10 1 10 -4 0 -16 36 -13 53 4
13 12 15 73 15 396 0 271 -3 388 -11 401 -12 19 -61 25 -72 9z"/>
<path d="M2882 2508 c-16 -16 -17 -769 -2 -799 12 -21 50 -25 68 -7 9 9 12
111 12 399 0 213 -3 394 -6 403 -7 19 -55 21 -72 4z"/>
<path d="M2042 1538 c-18 -18 -15 -56 6 -67 24 -13 268 -14 292 -1 22 12 27
49 8 68 -8 8 -57 12 -153 12 -96 0 -145 -4 -153 -12z"/>
<path d="M2652 1538 c-18 -18 -14 -56 7 -68 26 -13 266 -13 292 0 21 12 25 50
7 68 -8 8 -57 12 -153 12 -96 0 -145 -4 -153 -12z"/>
</g>
</svg>
